# xmcd
#
# Track frame offsets: 
#        182
#        17520
#        36525
#        47425
#        63332
#        83572
#        97680
#        117165
#        133765
#        148737
#
# Disc length: 2153 seconds
#
# Revision: 4
# Processed by: cddbd v1.5.2PL0 Copyright (c) Steve Scherf et al.
# Submitted via: ExactAudioCopy v0.99pb4
#
DISCID=7b08670a
DTITLE=Ronstadt, Linda - Don't Cry Now
DYEAR=1973
DGENRE=Rock
TTITLE0=I Can Almost See It
TTITLE1=Love Has No Pride
TTITLE2=Silver Threads And Golden Needles
TTITLE3=Desperado
TTITLE4=Don't Cry Now
TTITLE5=Sail Away
TTITLE6=Colorado
TTITLE7=The Fast One
TTITLE8=Everybody Loves A Winner
TTITLE9=I Believe In You
EXTD=(c)1973 Asylum Records/Warner Bros/Teldec Germany\nupc 0755960625
EXTD=27
EXTT0=
EXTT1=
EXTT2=
EXTT3=
EXTT4=
EXTT5=
EXTT6=
EXTT7=
EXTT8=
EXTT9=
PLAYORDER=
